<?xml version="1.0" encoding="UTF-8" standalone="no"?><!DOCTYPE svg PUBLIC "-//W3C//DTD SVG 1.1//EN" "http://www.w3.org/Graphics/SVG/1.1/DTD/svg11.dtd"><svg width="100%" height="100%" viewBox="0 0 336 207" version="1.1" xmlns="http://www.w3.org/2000/svg" xmlns:xlink="http://www.w3.org/1999/xlink" xml:space="preserve" xmlns:serif="http://www.serif.com/" style="fill-rule:evenodd;clip-rule:evenodd;stroke-linecap:round;stroke-linejoin:round;stroke-miterlimit:10;"><g id="アートボード1" transform="matrix(0.974394,0,0,1.01761,3.6284,2.86133)"><rect x="-3.724" y="-2.812" width="343.908" height="202.447" style="fill:none;"/><g transform="matrix(1.02628,0,0,0.982698,0.363872,0.158003)"><g id="Shoulders" transform="matrix(-1,0,0,1,327.098,0)"><g id="RightShoulder" transform="matrix(-0.638192,0,0,0.638192,390.043,-47.5103)"><path d="M471.799,87.283C474.052,79.954 480.06,76.912 491.613,77.003L511.601,77.003C523.761,76.893 530.237,80.401 533.423,87.671C526.795,85.028 516.406,83.742 502.17,83.506C490.14,83.306 479.675,84.545 471.799,87.283Z" style="fill:none;fill-rule:nonzero;stroke:black;stroke-width:2.75px;"/></g><g id="LeftShoulder" transform="matrix(0.638192,0,0,0.638192,-62.9702,-47.5103)"><path d="M471.799,87.283C474.052,79.954 480.06,76.912 491.613,77.003L511.601,77.003C523.761,76.893 530.237,80.401 533.423,87.671C526.795,85.028 516.406,83.742 502.17,83.506C490.14,83.306 479.675,84.545 471.799,87.283Z" style="fill:none;fill-rule:nonzero;stroke:black;stroke-width:2.75px;"/></g></g><g id="Structures"><g><g transform="matrix(-0.637838,0,0,0.637838,390.067,-47.4093)"><path d="M244.307,304.183L194.663,364.924C177.498,386.792 149.328,390.052 129.615,379.41C110.782,369.244 97.62,345.016 103.288,315.962L128.135,185.071" style="fill:none;fill-rule:nonzero;stroke:black;stroke-width:2.75px;"/></g><g transform="matrix(0.637838,0,0,0.637838,-62.931,-47.4093)"><path d="M244.307,304.183L194.663,364.924C177.498,386.792 149.328,390.052 129.615,379.41C110.782,369.244 97.62,345.016 103.288,315.962L128.135,185.071" style="fill:none;fill-rule:nonzero;stroke:black;stroke-width:2.75px;"/></g></g><g><g transform="matrix(0.638192,0,0,0.638192,-62.9702,-47.5103)"><path d="M455.784,129.119C457.404,109.054 459.755,96.371 462.996,92.706C468.68,86.275 484.326,83.106 502.846,83.507C525.316,83.994 536.859,87.04 540.388,92.742C542.993,96.436 544.839,106.963 545.805,125.406" style="fill:none;fill-rule:nonzero;stroke:black;stroke-width:2.75px;"/></g><g transform="matrix(-0.638192,0,0,0.638192,390.068,-47.5103)"><path d="M455.784,129.119C457.404,109.054 459.755,96.371 462.996,92.706C468.68,86.275 484.326,83.106 502.846,83.507C525.316,83.994 536.859,87.04 540.388,92.742C542.993,96.436 544.839,106.963 545.805,125.406" style="fill:none;fill-rule:nonzero;stroke:black;stroke-width:2.75px;"/></g></g><g><g transform="matrix(-1,0,0,1,327.075,0)"><path d="M209.667,87.054C208.676,83.123 208.15,79.011 208.15,74.776C208.15,47.097 230.621,24.626 258.3,24.626C285.979,24.626 308.45,47.097 308.45,74.776C308.45,102.454 285.979,124.926 258.3,124.926C253.924,124.926 249.678,124.364 245.629,123.308C244.49,141.101 229.679,155.2 211.6,155.2C192.78,155.2 177.5,139.92 177.5,121.1C177.5,102.929 191.744,88.059 209.667,87.054Z" style="fill:none;stroke:black;stroke-width:1.8px;stroke-miterlimit:1.5;"/></g><path d="M209.667,87.054C208.676,83.123 208.15,79.011 208.15,74.776C208.15,47.097 230.621,24.626 258.3,24.626C285.979,24.626 308.45,47.097 308.45,74.776C308.45,102.454 285.979,124.926 258.3,124.926C253.924,124.926 249.678,124.364 245.629,123.308C244.49,141.101 229.679,155.2 211.6,155.2C192.78,155.2 177.5,139.92 177.5,121.1C177.5,102.929 191.744,88.059 209.667,87.054Z" style="fill:none;stroke:black;stroke-width:1.8px;stroke-miterlimit:1.5;"/></g><g><g transform="matrix(0.638192,0,0,0.638192,-62.9702,-47.5103)"><path d="M332.694,271.17L377.211,271.17" style="fill:none;fill-rule:nonzero;stroke:black;stroke-width:2.75px;"/></g><g transform="matrix(0.638192,0,0,0.638192,-62.9702,-47.5103)"><path d="M329.62,283.28L380.285,283.28" style="fill:none;fill-rule:nonzero;stroke:black;stroke-width:2.75px;"/></g><g transform="matrix(0.638192,0,0,0.638192,-62.9702,-47.5103)"><path d="M456.07,125.678L253.819,125.678" style="fill:none;fill-rule:nonzero;stroke:black;stroke-width:2.75px;"/></g><g transform="matrix(0.622988,0,0,0.638192,-57.5736,-44.4067)"><path d="M456.07,125.678L253.819,125.678" style="fill:none;fill-rule:nonzero;stroke:black;stroke-width:2.75px;"/></g></g></g><g id="Sticks"><g id="RightStick" transform="matrix(0.985963,0,0,0.985963,3.02085,0.284628)"><circle cx="211.549" cy="122.535" r="23.023" style="fill:none;stroke:black;stroke-width:1.83px;stroke-miterlimit:1.5;"/></g><g id="LeftStick" transform="matrix(0.985963,0,0,0.985963,-93.0791,0.284628)"><circle cx="211.549" cy="122.535" r="23.023" style="fill:none;stroke:black;stroke-width:1.83px;stroke-miterlimit:1.5;"/></g></g><g id="Buttons"><g id="SquareButton" transform="matrix(1.01391,0,0,1.01391,-53.9333,0.562526)"><circle cx="283.097" cy="73.219" r="10.603" style="fill:none;stroke:black;stroke-width:1.78px;stroke-miterlimit:1.5;"/></g><g id="CircleButton" transform="matrix(1.01391,0,0,1.01391,-3.53326,0.562526)"><circle cx="283.097" cy="73.219" r="10.603" style="fill:none;stroke:black;stroke-width:1.78px;stroke-miterlimit:1.5;"/></g><g id="CrossButton" transform="matrix(1.01391,0,0,1.01391,-28.7333,25.7625)"><circle cx="283.097" cy="73.219" r="10.603" style="fill:none;stroke:black;stroke-width:1.78px;stroke-miterlimit:1.5;"/></g><g id="TriangleButton" transform="matrix(1.01391,0,0,1.01391,-28.7333,-24.6375)"><circle cx="283.097" cy="73.219" r="10.603" style="fill:none;stroke:black;stroke-width:1.78px;stroke-miterlimit:1.5;"/></g></g><g id="Arrows"><g id="RightArrow" transform="matrix(3.9078e-17,-0.638192,0.638192,3.9078e-17,-53.4805,206.562)"><path d="M204.222,201.356C204.242,201.337 205.076,200.429 206.473,200.435C207.864,200.441 208.696,201.356 208.696,201.356L219.2,211.74C219.218,211.758 219.65,212.166 219.891,212.75C220.167,213.415 220.146,214.001 220.146,214.001L220.146,229.734C220.146,229.734 220.244,230.849 219.304,231.892C218.359,232.94 217.025,232.914 217.025,232.914L195.954,232.914C195.926,232.914 194.721,232.997 193.705,231.982C192.729,231.005 192.774,229.793 192.774,229.793L192.774,214.005C192.774,213.977 192.757,213.4 193.031,212.753C193.29,212.142 193.72,211.744 193.72,211.744L204.222,201.356Z" style="fill:none;fill-rule:nonzero;stroke:black;stroke-width:2.75px;"/></g><g id="LeftArrow" transform="matrix(3.9078e-17,0.638192,-0.638192,3.9078e-17,191.081,-56.962)"><path d="M204.222,201.356C204.242,201.337 205.076,200.429 206.473,200.435C207.864,200.441 208.696,201.356 208.696,201.356L219.2,211.74C219.218,211.758 219.65,212.166 219.891,212.75C220.167,213.415 220.146,214.001 220.146,214.001L220.146,229.734C220.146,229.734 220.244,230.849 219.304,231.892C218.359,232.94 217.025,232.914 217.025,232.914L195.954,232.914C195.926,232.914 194.721,232.997 193.705,231.982C192.729,231.005 192.774,229.793 192.774,229.793L192.774,214.005C192.774,213.977 192.757,213.4 193.031,212.753C193.29,212.142 193.72,211.744 193.72,211.744L204.222,201.356Z" style="fill:none;fill-rule:nonzero;stroke:black;stroke-width:2.75px;"/></g><g id="DownArrow" transform="matrix(0.638192,0,0,0.638192,-62.9702,-47.5103)"><path d="M204.222,201.356C204.242,201.337 205.076,200.429 206.473,200.435C207.864,200.441 208.696,201.356 208.696,201.356L219.2,211.74C219.218,211.758 219.65,212.166 219.891,212.75C220.167,213.415 220.146,214.001 220.146,214.001L220.146,229.734C220.146,229.734 220.244,230.849 219.304,231.892C218.359,232.94 217.025,232.914 217.025,232.914L195.954,232.914C195.926,232.914 194.721,232.997 193.705,231.982C192.729,231.005 192.774,229.793 192.774,229.793L192.774,214.005C192.774,213.977 192.757,213.4 193.031,212.753C193.29,212.142 193.72,211.744 193.72,211.744L204.222,201.356Z" style="fill:none;fill-rule:nonzero;stroke:black;stroke-width:2.75px;"/></g><g id="UpArrow" transform="matrix(0.638192,0,0,-0.638192,-62.9702,197.081)"><path d="M204.222,201.356C204.242,201.337 205.076,200.429 206.473,200.435C207.864,200.441 208.696,201.356 208.696,201.356L219.2,211.74C219.218,211.758 219.65,212.166 219.891,212.75C220.167,213.415 220.146,214.001 220.146,214.001L220.146,229.734C220.146,229.734 220.244,230.849 219.304,231.892C218.359,232.94 217.025,232.914 217.025,232.914L195.954,232.914C195.926,232.914 194.721,232.997 193.705,231.982C192.729,231.005 192.774,229.793 192.774,229.793L192.774,214.005C192.774,213.977 192.757,213.4 193.031,212.753C193.29,212.142 193.72,211.744 193.72,211.744L204.222,201.356Z" style="fill:none;fill-rule:nonzero;stroke:black;stroke-width:2.75px;"/></g></g><g id="Controls"><g id="AnalogLed" transform="matrix(0.243325,0,0,0.148271,77.1891,81.6894)"><rect x="337.477" y="231.499" width="34.952" height="14.34" style="fill:none;"/><g id="AnalogLedLight" transform="matrix(15.3839,0,0,9.75583,-2127.05,-925.357)"><rect x="160.202" y="118.59" width="2.271" height="1.452" style="fill:none;"/></g><path d="M377.772,231.499C377.772,226.657 375.38,222.731 372.429,222.731L337.477,222.731C334.526,222.731 332.134,226.657 332.134,231.499L332.134,245.839C332.134,250.681 334.526,254.607 337.477,254.607L372.429,254.607C375.38,254.607 377.772,250.681 377.772,245.839L377.772,231.499ZM372.429,231.499L337.477,231.499L337.477,245.839L372.429,245.839L372.429,231.499Z"/></g><g id="AnalogButton" transform="matrix(0.366217,0,0,0.516039,33.5685,-18.3561)"><rect x="337.477" y="231.499" width="34.952" height="14.34" style="fill:none;stroke:black;stroke-width:4.02px;"/></g><g id="SelectButton" transform="matrix(0.544038,0,0,0.686187,-33.8779,-56.9243)"><rect x="297.26" y="186.543" width="23.449" height="10.845" style="fill:none;stroke:black;stroke-width:2.91px;"/></g><g id="StartButton" transform="matrix(0.634697,0,0,0.520519,-61.5686,-25.1217)"><path d="M412.645,191.965L389.196,183.796L389.196,200.135L412.645,191.965Z" style="fill:none;fill-rule:nonzero;stroke:black;stroke-width:3.1px;"/></g></g><g id="Detail"><g id="ButtonDetail" transform="matrix(0.638623,0,0,0.638623,126.455,-47.6662)"><path d="M185.259,212.808L185.259,246.919C185.294,248.671 185.901,250.143 187.013,251.179C188.231,252.313 189.648,252.922 191.281,252.941L221.621,252.941C223.479,252.869 225.012,252.207 226.16,250.889C227.189,249.708 227.65,248.355 227.643,246.919L227.643,212.808L261.754,212.808C263.359,212.786 264.795,212.279 265.982,211.121C267.186,209.946 267.762,208.36 267.778,206.786L267.778,176.446C267.745,174.865 267.287,173.513 266.087,172.269C264.962,171.103 263.43,170.475 261.754,170.424L227.643,170.424L227.643,136.3C227.654,134.815 227.114,133.259 225.8,131.949C224.695,130.847 223.252,130.371 221.621,130.278L191.281,130.278C189.722,130.289 188.262,130.794 187.057,131.982C185.841,133.181 185.238,134.787 185.259,136.3L185.259,170.411L151.148,170.411C149.547,170.455 148.258,170.837 146.901,172.178C145.556,173.508 145.167,174.89 145.126,176.433L145.126,206.773C145.124,208.316 145.694,209.795 146.758,210.909C147.994,212.204 149.553,212.806 151.148,212.795C151.148,212.808 185.259,212.808 185.259,212.808Z" style="fill:none;fill-rule:nonzero;stroke:black;stroke-width:2px;"/></g><g id="ArrowDetail" transform="matrix(0.638623,0,0,0.638623,-63.1808,-47.6662)"><path d="M185.259,212.808L185.259,246.919C185.294,248.671 185.901,250.143 187.013,251.179C188.231,252.313 189.648,252.922 191.281,252.941L221.621,252.941C223.479,252.869 225.012,252.207 226.16,250.889C227.189,249.708 227.65,248.355 227.643,246.919L227.643,212.808L261.754,212.808C263.359,212.786 264.795,212.279 265.982,211.121C267.186,209.946 267.762,208.36 267.778,206.786L267.778,176.446C267.745,174.865 267.287,173.513 266.087,172.269C264.962,171.103 263.43,170.475 261.754,170.424L227.643,170.424L227.643,136.3C227.654,134.815 227.114,133.259 225.8,131.949C224.695,130.847 223.252,130.371 221.621,130.278L191.281,130.278C189.722,130.289 188.262,130.794 187.057,131.982C185.841,133.181 185.238,134.787 185.259,136.3L185.259,170.411L151.148,170.411C149.547,170.455 148.258,170.837 146.901,172.178C145.556,173.508 145.167,174.89 145.126,176.433L145.126,206.773C145.124,208.316 145.694,209.795 146.758,210.909C147.994,212.204 149.553,212.806 151.148,212.795C151.148,212.808 185.259,212.808 185.259,212.808Z" style="fill:none;fill-rule:nonzero;stroke:black;stroke-width:2px;"/></g><g id="RightDetail" transform="matrix(0.429924,0,0,0.364841,-73.0321,4.84604)"><path d="M413.403,191.965L399.447,178.033L399.447,205.443L413.403,191.965Z" style="fill:none;fill-rule:nonzero;stroke:black;stroke-width:3.26px;"/></g><g id="LeftDetail" transform="matrix(-0.429924,-5.26505e-17,4.46802e-17,-0.364841,210.632,144.754)"><path d="M413.403,191.965L399.447,178.033L399.447,205.443L413.403,191.965Z" style="fill:none;fill-rule:nonzero;stroke:black;stroke-width:3.26px;"/></g><g id="DownDetail" transform="matrix(2.63253e-17,0.429924,0.364841,-2.23401e-17,-1.15856,-67.0321)"><path d="M413.403,191.965L399.447,178.033L399.447,205.443L413.403,191.965Z" style="fill:none;fill-rule:nonzero;stroke:black;stroke-width:3.26px;"/></g><g id="UpDetail" transform="matrix(2.63253e-17,-0.429924,0.364841,2.23401e-17,-1.15856,216.632)"><path d="M413.403,191.965L399.447,178.033L399.447,205.443L413.403,191.965Z" style="fill:none;fill-rule:nonzero;stroke:black;stroke-width:3.26px;"/></g></g></g></g></svg>