<?xml version="1.0" encoding="UTF-8" standalone="no"?><!DOCTYPE svg PUBLIC "-//W3C//DTD SVG 1.1//EN" "http://www.w3.org/Graphics/SVG/1.1/DTD/svg11.dtd"><svg width="100%" height="100%" viewBox="0 0 336 207" version="1.1" xmlns="http://www.w3.org/2000/svg" xmlns:xlink="http://www.w3.org/1999/xlink" xml:space="preserve" xmlns:serif="http://www.serif.com/" style="fill-rule:evenodd;clip-rule:evenodd;stroke-linecap:round;stroke-linejoin:round;stroke-miterlimit:10;"><rect id="アートボード1" x="0" y="0" width="335.102" height="206.011" style="fill:none;"/><g><g id="Shoulders"><path id="RightShoulder" d="M242.136,11.215C243.574,6.538 247.408,4.596 254.781,4.655L267.537,4.655C275.298,4.584 279.431,6.823 281.464,11.463C277.234,9.776 270.604,8.955 261.518,8.804C253.841,8.677 247.162,9.468 242.136,11.215Z" style="fill:none;fill-rule:nonzero;stroke:white;stroke-width:1.76px;"/><path id="LeftShoulder" d="M92.952,11.215C91.515,6.538 87.68,4.596 80.307,4.655L67.551,4.655C59.791,4.584 55.657,6.823 53.624,11.463C57.854,9.776 64.484,8.955 73.57,8.804C81.247,8.677 87.926,9.468 92.952,11.215Z" style="fill:none;fill-rule:nonzero;stroke:white;stroke-width:1.76px;"/></g><g id="Structures"><g><path d="M238.222,149.632L269.886,188.375C280.835,202.323 298.802,204.403 311.376,197.615C323.389,191.131 331.784,175.677 328.169,157.145L312.32,73.658" style="fill:none;fill-rule:nonzero;stroke:white;stroke-width:1.75px;"/><path d="M96.88,149.632L65.215,188.375C54.267,202.323 36.299,204.403 23.725,197.615C11.713,191.131 3.318,175.677 6.933,157.145L22.781,73.658" style="fill:none;fill-rule:nonzero;stroke:white;stroke-width:1.75px;"/></g><g><path d="M231.891,37.915C232.925,25.109 234.425,17.015 236.493,14.676C240.121,10.572 250.106,8.55 261.925,8.806C276.265,9.116 283.632,11.06 285.884,14.699C287.547,17.056 288.725,23.774 289.341,35.545" style="fill:none;fill-rule:nonzero;stroke:white;stroke-width:1.76px;"/><path d="M103.173,37.915C102.139,25.109 100.639,17.015 98.57,14.676C94.942,10.572 84.958,8.55 73.138,8.806C58.798,9.116 51.432,11.06 49.179,14.699C47.517,17.056 46.339,23.774 45.722,35.545" style="fill:none;fill-rule:nonzero;stroke:white;stroke-width:1.76px;"/></g><g><path d="M121.391,90.076C122.382,86.146 122.908,82.033 122.908,77.798C122.908,50.119 100.436,27.648 72.758,27.648C45.079,27.648 22.608,50.119 22.608,77.798C22.608,105.476 45.079,127.948 72.758,127.948C77.134,127.948 81.38,127.386 85.429,126.33C86.567,144.123 101.379,158.222 119.458,158.222C138.278,158.222 153.558,142.942 153.558,124.122C153.558,105.951 139.314,91.081 121.391,90.076Z" style="fill:none;stroke:white;stroke-width:1.8px;stroke-miterlimit:1.5;"/><path d="M213.65,90.076C212.659,86.146 212.133,82.033 212.133,77.798C212.133,50.119 234.604,27.648 262.283,27.648C289.961,27.648 312.433,50.119 312.433,77.798C312.433,105.476 289.961,127.948 262.283,127.948C257.907,127.948 253.661,127.386 249.612,126.33C248.473,144.123 233.662,158.222 215.583,158.222C196.763,158.222 181.483,142.942 181.483,124.122C181.483,105.951 195.727,91.081 213.65,90.076Z" style="fill:none;stroke:white;stroke-width:1.8px;stroke-miterlimit:1.5;"/></g><g><path d="M153.336,128.57L181.746,128.57" style="fill:none;fill-rule:nonzero;stroke:white;stroke-width:1.76px;"/><path d="M151.374,136.299L183.708,136.299" style="fill:none;fill-rule:nonzero;stroke:white;stroke-width:1.76px;"/><path d="M232.073,35.719L102.998,35.719" style="fill:none;fill-rule:nonzero;stroke:white;stroke-width:1.76px;"/><path d="M230.536,38.822L104.536,38.822" style="fill:none;fill-rule:nonzero;stroke:white;stroke-width:1.73px;"/></g></g><g id="Sticks"><circle id="RightStick" cx="215.583" cy="124.122" r="22.7" style="fill:none;stroke:white;stroke-width:1.8px;stroke-miterlimit:1.5;"/><circle id="LeftStick" cx="119.483" cy="124.122" r="22.7" style="fill:none;stroke:white;stroke-width:1.8px;stroke-miterlimit:1.5;"/></g><g id="Buttons"><circle id="SquareButton" cx="237.083" cy="77.822" r="10.75" style="fill:none;stroke:white;stroke-width:1.8px;stroke-miterlimit:1.5;"/><circle id="CircleButton" cx="287.483" cy="77.822" r="10.75" style="fill:none;stroke:white;stroke-width:1.8px;stroke-miterlimit:1.5;"/><circle id="CrossButton" cx="262.283" cy="103.022" r="10.75" style="fill:none;stroke:white;stroke-width:1.8px;stroke-miterlimit:1.5;"/><circle id="TriangleButton" cx="262.283" cy="52.622" r="10.75" style="fill:none;stroke:white;stroke-width:1.8px;stroke-miterlimit:1.5;"/></g><g id="Arrows"><path id="RightArrow" d="M79.006,79.251C78.994,79.238 78.415,78.706 78.418,77.815C78.422,76.927 79.006,76.396 79.006,76.396L85.633,69.692C85.645,69.681 85.905,69.405 86.278,69.251C86.703,69.075 87.076,69.089 87.076,69.089L97.117,69.089C97.117,69.089 97.829,69.026 98.494,69.626C99.163,70.229 99.146,71.08 99.146,71.08L99.146,84.528C99.146,84.546 99.199,85.315 98.551,85.963C97.928,86.586 97.155,86.557 97.155,86.557L87.079,86.557C87.061,86.557 86.693,86.568 86.28,86.393C85.89,86.228 85.636,85.954 85.636,85.954L79.006,79.251Z" style="fill:none;fill-rule:nonzero;stroke:white;stroke-width:1.76px;"/><path id="LeftArrow" d="M66.56,76.393C66.572,76.406 67.151,76.938 67.147,77.829C67.144,78.717 66.56,79.248 66.56,79.248L59.933,85.952C59.921,85.963 59.661,86.239 59.288,86.393C58.863,86.569 58.49,86.556 58.49,86.556L48.449,86.556C48.449,86.556 47.737,86.618 47.072,86.018C46.403,85.415 46.42,84.564 46.42,84.564L46.42,71.116C46.42,71.099 46.366,70.329 47.014,69.681C47.638,69.058 48.411,69.087 48.411,69.087L58.487,69.087C58.505,69.087 58.873,69.076 59.286,69.251C59.676,69.416 59.93,69.691 59.93,69.691L66.56,76.393Z" style="fill:none;fill-rule:nonzero;stroke:white;stroke-width:1.76px;"/><path id="DownArrow" d="M71.346,84.016C71.358,84.003 71.891,83.424 72.782,83.428C73.67,83.432 74.201,84.016 74.201,84.016L80.905,90.643C80.916,90.654 81.192,90.914 81.346,91.287C81.522,91.712 81.508,92.086 81.508,92.086L81.508,102.126C81.508,102.126 81.571,102.838 80.971,103.503C80.368,104.173 79.516,104.156 79.516,104.156L66.069,104.156C66.051,104.156 65.282,104.209 64.634,103.561C64.011,102.938 64.04,102.164 64.04,102.164L64.04,92.088C64.04,92.07 64.029,91.702 64.204,91.289C64.369,90.899 64.643,90.645 64.643,90.645L71.346,84.016Z" style="fill:none;fill-rule:nonzero;stroke:white;stroke-width:1.76px;"/><path id="UpArrow" d="M71.346,71.599C71.358,71.611 71.891,72.19 72.782,72.187C73.67,72.183 74.201,71.599 74.201,71.599L80.905,64.972C80.916,64.96 81.192,64.7 81.346,64.327C81.522,63.903 81.508,63.529 81.508,63.529L81.508,53.488C81.508,53.488 81.571,52.776 80.971,52.111C80.368,51.442 79.516,51.459 79.516,51.459L66.069,51.459C66.051,51.459 65.282,51.406 64.634,52.054C64.011,52.677 64.04,53.45 64.04,53.45L64.04,63.526C64.04,63.544 64.029,63.912 64.204,64.325C64.369,64.715 64.643,64.969 64.643,64.969L71.346,71.599Z" style="fill:none;fill-rule:nonzero;stroke:white;stroke-width:1.76px;"/></g><g id="Controls"><rect id="AnalogLed" x="163.289" y="119.036" width="8.505" height="2.126" style="fill:none;"/><rect id="AnalogLedLight" x="163.291" y="119.049" width="8.5" height="2.1" style="fill:none;"/><path d="M173.093,119.036C173.093,118.318 172.511,117.736 171.793,117.736L163.289,117.736C162.571,117.736 161.989,118.318 161.989,119.036L161.989,121.162C161.989,121.88 162.571,122.462 163.289,122.462L171.793,122.462C172.511,122.462 173.093,121.88 173.093,121.162L173.093,119.036ZM171.793,119.036L163.289,119.036L163.289,121.162L171.793,121.162L171.793,119.036Z" style="fill:white;"/><rect id="AnalogButton" x="161.141" y="104.129" width="12.8" height="7.4" style="fill:none;stroke:white;stroke-width:1.8px;"/><rect id="SelectButton" x="131.826" y="74.101" width="12.757" height="7.442" style="fill:none;stroke:white;stroke-width:1.8px;"/><path id="StartButton" d="M204.319,77.822L189.436,73.57L189.436,82.074L204.319,77.822Z" style="fill:none;fill-rule:nonzero;stroke:white;stroke-width:1.8px;"/></g><g id="Detail"><path id="ButtonDetail" d="M248.749,91.26L248.749,113.044C248.771,114.163 249.159,115.103 249.869,115.764C250.646,116.489 251.552,116.877 252.594,116.89L271.97,116.89C273.157,116.844 274.136,116.421 274.869,115.579C275.526,114.825 275.82,113.961 275.816,113.044L275.816,91.26L297.6,91.26C298.625,91.246 299.542,90.922 300.3,90.183C301.069,89.432 301.437,88.419 301.447,87.414L301.447,68.038C301.426,67.029 301.133,66.165 300.367,65.371C299.649,64.626 298.671,64.225 297.6,64.193L275.816,64.193L275.816,42.4C275.823,41.452 275.478,40.458 274.639,39.622C273.933,38.917 273.012,38.614 271.97,38.554L252.594,38.554C251.599,38.562 250.666,38.884 249.897,39.643C249.12,40.408 248.735,41.434 248.749,42.4L248.749,64.184L226.965,64.184C225.942,64.212 225.119,64.457 224.252,65.313C223.393,66.162 223.145,67.045 223.119,68.03L223.119,87.406C223.118,88.391 223.481,89.336 224.161,90.047C224.95,90.874 225.946,91.259 226.965,91.252C226.965,91.26 248.749,91.26 248.749,91.26Z" style="fill:none;fill-rule:nonzero;stroke:white;stroke-width:1.28px;"/><path id="ArrowDetail" d="M59.113,91.26L59.113,113.044C59.135,114.163 59.523,115.103 60.233,115.764C61.011,116.489 61.916,116.877 62.959,116.89L82.334,116.89C83.521,116.844 84.5,116.421 85.233,115.579C85.89,114.825 86.185,113.961 86.18,113.044L86.18,91.26L107.964,91.26C108.989,91.246 109.906,90.922 110.664,90.183C111.433,89.432 111.801,88.419 111.811,87.414L111.811,68.038C111.791,67.029 111.498,66.165 110.731,65.371C110.013,64.626 109.035,64.225 107.964,64.193L86.18,64.193L86.18,42.4C86.187,41.452 85.843,40.458 85.004,39.622C84.297,38.917 83.376,38.614 82.334,38.554L62.959,38.554C61.963,38.562 61.031,38.884 60.261,39.643C59.484,40.408 59.099,41.434 59.113,42.4L59.113,64.184L37.329,64.184C36.306,64.212 35.483,64.457 34.617,65.313C33.757,66.162 33.509,67.045 33.483,68.03L33.483,87.406C33.482,88.391 33.846,89.336 34.525,90.047C35.315,90.874 36.31,91.259 37.329,91.252C37.329,91.26 59.113,91.26 59.113,91.26Z" style="fill:none;fill-rule:nonzero;stroke:white;stroke-width:1.28px;"/><path id="RightDetail" d="M108.683,77.905L102.683,72.822L102.683,82.822L108.683,77.905Z" style="fill:none;fill-rule:nonzero;stroke:white;stroke-width:1.3px;"/><path id="LeftDetail" d="M36.883,77.739L42.883,82.822L42.883,72.822L36.883,77.739Z" style="fill:none;fill-rule:nonzero;stroke:white;stroke-width:1.3px;"/><path id="DownDetail" d="M72.861,113.722L67.778,107.722L77.778,107.722L72.861,113.722Z" style="fill:none;fill-rule:nonzero;stroke:white;stroke-width:1.3px;"/><path id="UpDetail" d="M72.861,41.922L67.778,47.922L77.778,47.922L72.861,41.922Z" style="fill:none;fill-rule:nonzero;stroke:white;stroke-width:1.3px;"/></g></g></svg>