<?xml version="1.0" encoding="UTF-8" standalone="no"?><!DOCTYPE svg PUBLIC "-//W3C//DTD SVG 1.1//EN" "http://www.w3.org/Graphics/SVG/1.1/DTD/svg11.dtd"><svg width="100%" height="100%" viewBox="0 0 336 207" version="1.1" xmlns="http://www.w3.org/2000/svg" xmlns:xlink="http://www.w3.org/1999/xlink" xml:space="preserve" xmlns:serif="http://www.serif.com/" style="fill-rule:evenodd;clip-rule:evenodd;stroke-linecap:round;stroke-linejoin:round;stroke-miterlimit:10;"><rect id="アートボード1" x="0" y="0" width="335.102" height="206.011" style="fill:none;"/><g><g id="Shoulders"><path id="RightShoulder" d="M242.136,11.215C243.574,6.538 247.408,4.596 254.781,4.655L267.537,4.655C275.298,4.584 279.431,6.823 281.464,11.463C277.234,9.776 270.604,8.955 261.518,8.804C253.841,8.677 247.162,9.468 242.136,11.215Z" style="fill:none;fill-rule:nonzero;stroke:white;stroke-width:1.76px;"/><path id="LeftShoulder" d="M92.952,11.215C91.515,6.538 87.68,4.596 80.307,4.655L67.551,4.655C59.791,4.584 55.657,6.823 53.624,11.463C57.854,9.776 64.484,8.955 73.57,8.804C81.247,8.677 87.926,9.468 92.952,11.215Z" style="fill:none;fill-rule:nonzero;stroke:white;stroke-width:1.76px;"/></g><g id="Structures"><g><path d="M238.222,149.632L269.886,188.375C280.835,202.323 298.802,204.403 311.376,197.615C323.389,191.131 331.784,175.677 328.169,157.145L312.32,73.658" style="fill:none;fill-rule:nonzero;stroke:white;stroke-width:1.75px;"/><path d="M96.88,149.632L65.215,188.375C54.267,202.323 36.299,204.403 23.725,197.615C11.713,191.131 3.318,175.677 6.933,157.145L22.781,73.658" style="fill:none;fill-rule:nonzero;stroke:white;stroke-width:1.75px;"/></g><g><path d="M231.891,37.915C232.925,25.109 234.425,17.015 236.493,14.676C240.121,10.572 250.106,8.55 261.925,8.806C276.265,9.116 283.632,11.06 285.884,14.699C287.547,17.056 288.725,23.774 289.341,35.545" style="fill:none;fill-rule:nonzero;stroke:white;stroke-width:1.76px;"/><path d="M103.173,37.915C102.139,25.109 100.639,17.015 98.57,14.676C94.942,10.572 84.958,8.55 73.138,8.806C58.798,9.116 51.432,11.06 49.179,14.699C47.517,17.056 46.339,23.774 45.722,35.545" style="fill:none;fill-rule:nonzero;stroke:white;stroke-width:1.76px;"/></g><g><path d="M121.391,90.076C122.382,86.146 122.908,82.033 122.908,77.798C122.908,50.119 100.436,27.648 72.758,27.648C45.079,27.648 22.608,50.119 22.608,77.798C22.608,105.476 45.079,127.948 72.758,127.948C77.134,127.948 81.38,127.386 85.429,126.33C86.567,144.123 101.379,158.222 119.458,158.222C138.278,158.222 153.558,142.942 153.558,124.122C153.558,105.951 139.314,91.081 121.391,90.076Z" style="fill:none;stroke:white;stroke-width:1.8px;stroke-miterlimit:1.5;"/><path d="M213.65,90.076C212.659,86.146 212.133,82.033 212.133,77.798C212.133,50.119 234.604,27.648 262.283,27.648C289.961,27.648 312.433,50.119 312.433,77.798C312.433,105.476 289.961,127.948 262.283,127.948C257.907,127.948 253.661,127.386 249.612,126.33C248.473,144.123 233.662,158.222 215.583,158.222C196.763,158.222 181.483,142.942 181.483,124.122C181.483,105.951 195.727,91.081 213.65,90.076Z" style="fill:none;stroke:white;stroke-width:1.8px;stroke-miterlimit:1.5;"/></g><g><path d="M153.336,128.57L181.746,128.57" style="fill:none;fill-rule:nonzero;stroke:white;stroke-width:1.76px;"/><path d="M151.374,136.299L183.708,136.299" style="fill:none;fill-rule:nonzero;stroke:white;stroke-width:1.76px;"/><path d="M232.073,35.719L102.998,35.719" style="fill:none;fill-rule:nonzero;stroke:white;stroke-width:1.76px;"/><path d="M230.536,38.822L104.536,38.822" style="fill:none;fill-rule:nonzero;stroke:white;stroke-width:1.73px;"/></g></g><g id="Sticks"><circle id="RightStick" cx="215.583" cy="124.122" r="22.7" style="fill:none;stroke:white;stroke-width:1.8px;stroke-miterlimit:1.5;"/><circle id="LeftStick" cx="119.483" cy="124.122" r="22.7" style="fill:none;stroke:white;stroke-width:1.8px;stroke-miterlimit:1.5;"/></g><g id="Buttons"><circle id="SquareButton" cx="237.083" cy="77.822" r="10.75" style="fill:none;stroke:white;stroke-width:1.8px;stroke-miterlimit:1.5;"/><circle id="CircleButton" cx="287.483" cy="77.822" r="10.75" style="fill:none;stroke:white;stroke-width:1.8px;stroke-miterlimit:1.5;"/><circle id="CrossButton" cx="262.283" cy="103.022" r="10.75" style="fill:none;stroke:white;stroke-width:1.8px;stroke-miterlimit:1.5;"/><circle id="TriangleButton" cx="262.283" cy="52.622" r="10.75" style="fill:none;stroke:white;stroke-width:1.8px;stroke-miterlimit:1.5;"/></g><g id="Arrows"><path id="RightArrow" d="M79.006,79.251C78.994,79.238 78.415,78.706 78.418,77.815C78.422,76.927 79.006,76.396 79.006,76.396L85.633,69.692C85.645,69.681 85.905,69.405 86.278,69.251C86.703,69.075 87.076,69.089 87.076,69.089L97.117,69.089C97.117,69.089 97.829,69.026 98.494,69.626C99.163,70.229 99.146,71.08 99.146,71.08L99.146,84.528C99.146,84.546 99.199,85.315 98.551,85.963C97.928,86.586 97.155,86.557 97.155,86.557L87.079,86.557C87.061,86.557 86.693,86.568 86.28,86.393C85.89,86.228 85.636,85.954 85.636,85.954L79.006,79.251Z" style="fill:none;fill-rule:nonzero;stroke:white;stroke-width:1.76px;"/><path id="LeftArrow" d="M66.56,76.393C66.572,76.406 67.151,76.938 67.147,77.829C67.144,78.717 66.56,79.248 66.56,79.248L59.933,85.952C59.921,85.963 59.661,86.239 59.288,86.393C58.863,86.569 58.49,86.556 58.49,86.556L48.449,86.556C48.449,86.556 47.737,86.618 47.072,86.018C46.403,85.415 46.42,84.564 46.42,84.564L46.42,71.116C46.42,71.099 46.366,70.329 47.014,69.681C47.638,69.058 48.411,69.087 48.411,69.087L58.487,69.087C58.505,69.087 58.873,69.076 59.286,69.251C59.676,69.416 59.93,69.691 59.93,69.691L66.56,76.393Z" style="fill:none;fill-rule:nonzero;stroke:white;stroke-width:1.76px;"/><path id="DownArrow" d="M71.346,84.016C71.358,84.003 71.891,83.424 72.782,83.428C73.67,83.432 74.201,84.016 74.201,84.016L80.905,90.643C80.916,90.654 81.192,90.914 81.346,91.287C81.522,91.712 81.508,92.086 81.508,92.086L81.508,102.126C81.508,102.126 81.571,102.838 80.971,103.503C80.368,104.173 79.516,104.156 79.516,104.156L66.069,104.156C66.051,104.156 65.282,104.209 64.634,103.561C64.011,102.938 64.04,102.164 64.04,102.164L64.04,92.088C64.04,92.07 64.029,91.702 64.204,91.289C64.369,90.899 64.643,90.645 64.643,90.645L71.346,84.016Z" style="fill:none;fill-rule:nonzero;stroke:white;stroke-width:1.76px;"/><path id="UpArrow" d="M71.346,71.599C71.358,71.611 71.891,72.19 72.782,72.187C73.67,72.183 74.201,71.599 74.201,71.599L80.905,64.972C80.916,64.96 81.192,64.7 81.346,64.327C81.522,63.903 81.508,63.529 81.508,63.529L81.508,53.488C81.508,53.488 81.571,52.776 80.971,52.111C80.368,51.442 79.516,51.459 79.516,51.459L66.069,51.459C66.051,51.459 65.282,51.406 64.634,52.054C64.011,52.677 64.04,53.45 64.04,53.45L64.04,63.526C64.04,63.544 64.029,63.912 64.204,64.325C64.369,64.715 64.643,64.969 64.643,64.969L71.346,71.599Z" style="fill:none;fill-rule:nonzero;stroke:white;stroke-width:1.76px;"/></g><g id="Controls"><rect id="AnalogLed" x="163.289" y="119.036" width="8.505" height="2.126" style="fill:none;"/><rect id="AnalogLedLight" x="163.291" y="119.049" width="8.5" height="2.1" style="fill:none;"/><path d="M173.093,119.036C173.093,118.318 172.511,117.736 171.793,117.736L163.289,117.736C162.571,117.736 161.989,118.318 161.989,119.036L161.989,121.162C161.989,121.88 162.571,122.462 163.289,122.462L171.793,122.462C172.511,122.462 173.093,121.88 173.093,121.162L173.093,119.036ZM171.793,119.036L163.289,119.036L163.289,121.162L171.793,121.162L171.793,119.036Z" style="fill:white;"/><rect id="AnalogButton" x="161.141" y="104.129" width="12.8" height="7.4" style="fill:none;stroke:white;stroke-width:1.8px;"/><rect id="SelectButton" x="131.826" y="74.101" width="12.757" height="7.442" style="fill:none;stroke:white;stroke-width:1.8px;"/><path id="StartButton" d="M204.319,77.822L189.436,73.57L189.436,82.074L204.319,77.822Z" style="fill:none;fill-rule:nonzero;stroke:white;stroke-width:1.8px;"/></g><g id="Detail"><path id="ButtonDetail" d="M248.749,91.26L248.749,113.044C248.771,114.163 249.159,115.103 249.869,115.764C250.646,116.489 251.552,116.877 252.594,116.89L271.97,116.89C273.157,116.844 274.136,116.421 274.869,115.579C275.526,114.825 275.82,113.961 275.816,113.044L275.816,91.26L297.6,91.26C298.625,91.246 299.542,90.922 300.3,90.183C301.069,89.432 301.437,88.419 301.447,87.414L301.447,68.038C301.426,67.029 301.133,66.165 300.367,65.371C299.649,64.626 298.671,64.225 297.6,64.193L275.816,64.193L275.816,42.4C275.823,41.452 275.478,40.458 274.639,39.622C273.933,38.917 273.012,38.614 271.97,38.554L252.594,38.554C251.599,38.562 250.666,38.884 249.897,39.643C249.12,40.408 248.735,41.434 248.749,42.4L248.749,64.184L226.965,64.184C225.942,64.212 225.119,64.457 224.252,65.313C223.393,66.162 223.145,67.045 223.119,68.03L223.119,87.406C223.118,88.391 223.481,89.336 224.161,90.047C224.95,90.874 225.946,91.259 226.965,91.252C226.965,91.26 248.749,91.26 248.749,91.26Z" style="fill:none;fill-rule:nonzero;stroke:white;stroke-width:1.28px;"/><path id="ArrowDetail" d="M59.113,91.26L59.113,113.044C59.135,114.163 59.523,115.103 60.233,115.764C61.011,116.489 61.916,116.877 62.959,116.89L82.334,116.89C83.521,116.844 84.5,116.421 85.233,115.579C85.89,114.825 86.185,113.961 86.18,113.044L86.18,91.26L107.964,91.26C108.989,91.246 109.906,90.922 110.664,90.183C111.433,89.432 111.801,88.419 111.811,87.414L111.811,68.038C111.791,67.029 111.498,66.165 110.731,65.371C110.013,64.626 109.035,64.225 107.964,64.193L86.18,64.193L86.18,42.4C86.187,41.452 85.843,40.458 85.004,39.622C84.297,38.917 83.376,38.614 82.334,38.554L62.959,38.554C61.963,38.562 61.031,38.884 60.261,39.643C59.484,40.408 59.099,41.434 59.113,42.4L59.113,64.184L37.329,64.184C36.306,64.212 35.483,64.457 34.617,65.313C33.757,66.162 33.509,67.045 33.483,68.03L33.483,87.406C33.482,88.391 33.846,89.336 34.525,90.047C35.315,90.874 36.31,91.259 37.329,91.252C37.329,91.26 59.113,91.26 59.113,91.26Z" style="fill:none;fill-rule:nonzero;stroke:white;stroke-width:1.28px;"/><path id="RightDetail" d="M108.683,77.905L102.683,72.822L102.683,82.822L108.683,77.905Z" style="fill:none;fill-rule:nonzero;stroke:white;stroke-width:1.3px;"/><path id="LeftDetail" d="M36.883,77.739L42.883,82.822L42.883,72.822L36.883,77.739Z" style="fill:none;fill-rule:nonzero;stroke:white;stroke-width:1.3px;"/><path id="DownDetail" d="M72.861,113.722L67.778,107.722L77.778,107.722L72.861,113.722Z" style="fill:none;fill-rule:nonzero;stroke:white;stroke-width:1.3px;"/><path id="UpDetail" d="M72.861,41.922L67.778,47.922L77.778,47.922L72.861,41.922Z" style="fill:none;fill-rule:nonzero;stroke:white;stroke-width:1.3px;"/><path d="M154.772,101.431L156.482,97.566L157.116,97.566L158.938,101.431L158.267,101.431L157.748,100.261L155.887,100.261L155.398,101.431L154.772,101.431ZM156.057,99.844L157.566,99.844L157.101,98.773C156.959,98.448 156.854,98.181 156.785,97.972C156.729,98.22 156.649,98.466 156.545,98.71L156.057,99.844Z" style="fill:white;fill-rule:nonzero;"/><path d="M159.403,101.431L159.403,97.566L160.007,97.566L162.345,100.601L162.345,97.566L162.909,97.566L162.909,101.431L162.305,101.431L159.967,98.394L159.967,101.431L159.403,101.431Z" style="fill:white;fill-rule:nonzero;"/><path d="M163.41,101.431L165.12,97.566L165.754,97.566L167.576,101.431L166.905,101.431L166.386,100.261L164.525,100.261L164.036,101.431L163.41,101.431ZM164.695,99.844L166.204,99.844L165.739,98.773C165.597,98.448 165.492,98.181 165.423,97.972C165.367,98.22 165.287,98.466 165.183,98.71L164.695,99.844Z" style="fill:white;fill-rule:nonzero;"/><path d="M168.022,101.431L168.022,97.566L168.611,97.566L168.611,100.975L170.803,100.975L170.803,101.431L168.022,101.431Z" style="fill:white;fill-rule:nonzero;"/><path d="M171.326,99.549C171.326,98.907 171.524,98.405 171.921,98.042C172.318,97.679 172.83,97.497 173.457,97.497C173.868,97.497 174.238,97.582 174.568,97.753C174.898,97.923 175.15,98.161 175.323,98.466C175.496,98.771 175.582,99.117 175.582,99.504C175.582,99.896 175.491,100.246 175.309,100.556C175.127,100.865 174.869,101.099 174.535,101.259C174.201,101.418 173.841,101.497 173.454,101.497C173.035,101.497 172.661,101.409 172.331,101.233C172.001,101.058 171.751,100.818 171.581,100.514C171.411,100.21 171.326,99.888 171.326,99.549ZM171.933,99.556C171.933,100.022 172.077,100.389 172.366,100.657C172.654,100.925 173.016,101.059 173.451,101.059C173.894,101.059 174.259,100.924 174.546,100.653C174.832,100.383 174.975,99.999 174.975,99.501C174.975,99.186 174.914,98.912 174.791,98.677C174.669,98.442 174.49,98.261 174.254,98.131C174.018,98.002 173.754,97.937 173.46,97.937C173.043,97.937 172.684,98.062 172.384,98.311C172.083,98.559 171.933,98.975 171.933,99.556Z" style="fill:white;fill-rule:nonzero;"/><path d="M178.424,99.915L178.424,99.462L180.31,99.459L180.31,100.893C180.02,101.094 179.722,101.244 179.414,101.346C179.106,101.447 178.791,101.497 178.467,101.497C178.03,101.497 177.632,101.416 177.275,101.253C176.918,101.091 176.648,100.856 176.466,100.548C176.284,100.24 176.193,99.897 176.193,99.517C176.193,99.141 176.283,98.79 176.464,98.464C176.646,98.137 176.906,97.895 177.246,97.737C177.586,97.579 177.978,97.5 178.421,97.5C178.743,97.5 179.034,97.545 179.294,97.636C179.554,97.726 179.758,97.852 179.906,98.014C180.054,98.176 180.166,98.387 180.243,98.647L179.712,98.773C179.645,98.576 179.562,98.422 179.463,98.309C179.363,98.197 179.222,98.107 179.038,98.039C178.853,97.971 178.649,97.937 178.424,97.937C178.155,97.937 177.922,97.973 177.726,98.044C177.53,98.115 177.371,98.209 177.251,98.325C177.13,98.441 177.037,98.569 176.97,98.707C176.857,98.947 176.8,99.206 176.8,99.485C176.8,99.83 176.868,100.118 177.005,100.35C177.142,100.582 177.34,100.754 177.601,100.867C177.863,100.979 178.14,101.036 178.433,101.036C178.688,101.036 178.937,100.993 179.18,100.908C179.423,100.823 179.607,100.732 179.733,100.635L179.733,99.915L178.424,99.915Z" style="fill:white;fill-rule:nonzero;"/><path d="M126.304,86.919L126.86,86.877C126.886,87.07 126.947,87.229 127.044,87.353C127.14,87.477 127.289,87.577 127.492,87.654C127.694,87.73 127.922,87.768 128.175,87.768C128.4,87.768 128.599,87.739 128.771,87.681C128.943,87.623 129.071,87.544 129.155,87.443C129.239,87.341 129.281,87.231 129.281,87.112C129.281,86.99 129.241,86.884 129.16,86.794C129.079,86.703 128.945,86.627 128.759,86.565C128.639,86.525 128.375,86.462 127.966,86.377C127.556,86.291 127.27,86.211 127.106,86.135C126.893,86.039 126.735,85.918 126.63,85.775C126.526,85.632 126.474,85.471 126.474,85.294C126.474,85.098 126.538,84.916 126.665,84.746C126.793,84.576 126.979,84.447 127.224,84.36C127.469,84.272 127.742,84.228 128.042,84.228C128.372,84.228 128.663,84.274 128.915,84.366C129.167,84.458 129.361,84.594 129.497,84.774C129.633,84.953 129.705,85.156 129.716,85.383L129.15,85.42C129.12,85.176 129.017,84.991 128.842,84.866C128.667,84.741 128.408,84.679 128.066,84.679C127.709,84.679 127.45,84.736 127.287,84.849C127.124,84.962 127.042,85.099 127.042,85.259C127.042,85.398 127.1,85.513 127.215,85.602C127.329,85.692 127.625,85.784 128.104,85.878C128.583,85.972 128.911,86.054 129.09,86.125C129.349,86.228 129.54,86.36 129.664,86.519C129.788,86.678 129.849,86.862 129.849,87.069C129.849,87.275 129.781,87.469 129.646,87.651C129.51,87.833 129.315,87.975 129.061,88.076C128.807,88.177 128.521,88.228 128.203,88.228C127.8,88.228 127.462,88.177 127.189,88.075C126.917,87.973 126.703,87.819 126.548,87.614C126.393,87.409 126.312,87.177 126.304,86.919Z" style="fill:white;fill-rule:nonzero;"/><path d="M130.667,88.162L130.667,84.294L133.887,84.294L133.887,84.75L131.256,84.75L131.256,85.935L133.72,85.935L133.72,86.389L131.256,86.389L131.256,87.705L133.99,87.705L133.99,88.162L130.667,88.162Z" style="fill:white;fill-rule:nonzero;"/><path d="M134.78,88.162L134.78,84.294L135.37,84.294L135.37,87.705L137.563,87.705L137.563,88.162L134.78,88.162Z" style="fill:white;fill-rule:nonzero;"/><path d="M138.277,88.162L138.277,84.294L141.498,84.294L141.498,84.75L138.867,84.75L138.867,85.935L141.331,85.935L141.331,86.389L138.867,86.389L138.867,87.705L141.601,87.705L141.601,88.162L138.277,88.162Z" style="fill:white;fill-rule:nonzero;"/><path d="M145.593,86.805L146.183,86.935C146.059,87.355 145.837,87.676 145.516,87.896C145.195,88.117 144.802,88.228 144.338,88.228C143.858,88.228 143.468,88.143 143.167,87.973C142.866,87.803 142.638,87.557 142.481,87.236C142.324,86.914 142.245,86.568 142.245,86.199C142.245,85.796 142.334,85.444 142.511,85.144C142.688,84.845 142.94,84.617 143.267,84.461C143.595,84.305 143.955,84.228 144.348,84.228C144.793,84.228 145.168,84.326 145.472,84.523C145.775,84.72 145.987,84.997 146.107,85.354L145.526,85.473C145.423,85.192 145.273,84.987 145.077,84.858C144.88,84.73 144.633,84.666 144.335,84.666C143.993,84.666 143.707,84.737 143.477,84.879C143.247,85.022 143.086,85.213 142.993,85.453C142.899,85.693 142.853,85.941 142.853,86.196C142.853,86.525 142.908,86.812 143.018,87.057C143.129,87.303 143.3,87.486 143.533,87.608C143.766,87.729 144.018,87.79 144.29,87.79C144.62,87.79 144.899,87.707 145.128,87.542C145.357,87.376 145.512,87.131 145.593,86.805Z" style="fill:white;fill-rule:nonzero;"/><path d="M148.042,88.162L148.042,84.75L146.575,84.75L146.575,84.294L150.105,84.294L150.105,84.75L148.631,84.75L148.631,88.162L148.042,88.162Z" style="fill:white;fill-rule:nonzero;"/><path d="M187.169,86.919L187.725,86.877C187.751,87.07 187.812,87.229 187.908,87.353C188.005,87.477 188.154,87.577 188.357,87.654C188.559,87.73 188.787,87.768 189.04,87.768C189.265,87.768 189.463,87.739 189.636,87.681C189.808,87.623 189.936,87.544 190.02,87.443C190.104,87.341 190.146,87.231 190.146,87.112C190.146,86.99 190.106,86.884 190.025,86.794C189.944,86.703 189.81,86.627 189.623,86.565C189.504,86.525 189.24,86.462 188.831,86.377C188.421,86.291 188.135,86.211 187.971,86.135C187.758,86.039 187.6,85.918 187.495,85.775C187.391,85.632 187.339,85.471 187.339,85.294C187.339,85.098 187.403,84.916 187.53,84.746C187.658,84.576 187.844,84.447 188.089,84.36C188.334,84.272 188.607,84.228 188.906,84.228C189.237,84.228 189.528,84.274 189.78,84.366C190.032,84.458 190.226,84.594 190.362,84.774C190.497,84.953 190.57,85.156 190.581,85.383L190.015,85.42C189.985,85.176 189.882,84.991 189.707,84.866C189.532,84.741 189.273,84.679 188.931,84.679C188.574,84.679 188.315,84.736 188.151,84.849C187.988,84.962 187.907,85.099 187.907,85.259C187.907,85.398 187.965,85.513 188.08,85.602C188.194,85.692 188.49,85.784 188.969,85.878C189.448,85.972 189.776,86.054 189.955,86.125C190.214,86.228 190.405,86.36 190.529,86.519C190.652,86.678 190.714,86.862 190.714,87.069C190.714,87.275 190.646,87.469 190.511,87.651C190.375,87.833 190.18,87.975 189.926,88.076C189.672,88.177 189.385,88.228 189.067,88.228C188.664,88.228 188.327,88.177 188.054,88.075C187.782,87.973 187.568,87.819 187.413,87.614C187.258,87.409 187.177,87.177 187.169,86.919Z" style="fill:white;fill-rule:nonzero;"/><path d="M192.653,88.162L192.653,84.75L191.185,84.75L191.185,84.294L194.716,84.294L194.716,84.75L193.242,84.75L193.242,88.162L192.653,88.162Z" style="fill:white;fill-rule:nonzero;"/><path d="M194.369,88.162L196.08,84.294L196.715,84.294L198.538,88.162L197.866,88.162L197.347,86.99L195.484,86.99L194.995,88.162L194.369,88.162ZM195.654,86.573L197.164,86.573L196.699,85.502C196.558,85.177 196.452,84.909 196.383,84.7C196.327,84.948 196.247,85.194 196.143,85.439L195.654,86.573Z" style="fill:white;fill-rule:nonzero;"/><path d="M199.018,88.162L199.018,84.294L200.992,84.294C201.389,84.294 201.691,84.328 201.898,84.398C202.104,84.467 202.269,84.59 202.393,84.766C202.517,84.942 202.578,85.136 202.578,85.349C202.578,85.623 202.476,85.855 202.271,86.043C202.067,86.231 201.751,86.351 201.324,86.402C201.48,86.467 201.598,86.531 201.679,86.594C201.851,86.732 202.014,86.903 202.168,87.109L202.943,88.162L202.202,88.162L201.612,87.357C201.44,87.125 201.298,86.947 201.187,86.824C201.075,86.701 200.976,86.615 200.888,86.565C200.799,86.516 200.71,86.482 200.619,86.462C200.552,86.45 200.442,86.444 200.291,86.444L199.607,86.444L199.607,88.162L199.018,88.162ZM199.607,86.001L200.874,86.001C201.143,86.001 201.354,85.977 201.506,85.928C201.658,85.88 201.773,85.802 201.852,85.696C201.931,85.59 201.971,85.474 201.971,85.349C201.971,85.166 201.894,85.016 201.741,84.898C201.588,84.78 201.347,84.721 201.017,84.721L199.607,84.721L199.607,86.001Z" style="fill:white;fill-rule:nonzero;"/><path d="M204.523,88.162L204.523,84.75L203.055,84.75L203.055,84.294L206.586,84.294L206.586,84.75L205.112,84.75L205.112,88.162L204.523,88.162Z" style="fill:white;fill-rule:nonzero;"/><path d="M135.151,49.395L135.151,50.247L132.419,50.247L132.419,63.57L135.151,63.57L135.151,64.423L131.028,64.423L131.028,49.395L135.151,49.395Z" style="fill:white;fill-rule:nonzero;"/><path d="M142.145,51.25C142.438,51.25 142.705,51.323 142.947,51.469C143.19,51.615 143.396,51.812 143.568,52.058C143.739,52.305 143.871,52.591 143.963,52.917C144.054,53.243 144.1,53.585 144.1,53.944C144.1,55.056 143.724,55.862 142.972,56.363C143.683,56.723 144.038,57.613 144.038,59.033L144.038,61.377L142.446,61.377L142.446,59.033C142.446,58.724 142.417,58.434 142.358,58.162C142.3,57.89 142.218,57.654 142.114,57.454C142.009,57.253 141.884,57.095 141.738,56.978C141.592,56.861 141.427,56.802 141.243,56.802L139.062,56.802L139.062,61.377L137.395,61.377L137.395,51.25L142.145,51.25ZM139.062,55.937L141.255,55.937C141.439,55.937 141.604,55.887 141.75,55.787C141.897,55.687 142.022,55.551 142.126,55.38C142.231,55.208 142.31,55.008 142.365,54.778C142.419,54.548 142.446,54.3 142.446,54.032C142.446,53.765 142.415,53.512 142.352,53.274C142.289,53.036 142.206,52.829 142.101,52.653C141.997,52.478 141.872,52.34 141.725,52.24C141.579,52.14 141.418,52.089 141.243,52.089L139.062,52.089L139.062,55.937Z" style="fill:white;fill-rule:nonzero;"/><path d="M151.583,51.25L151.583,52.089L146.921,52.089L146.921,55.875L150.305,55.875L150.305,56.727L146.921,56.727L146.921,60.537L151.583,60.537L151.583,61.377L145.216,61.377L145.216,51.25L151.583,51.25Z" style="fill:white;fill-rule:nonzero;"/><path d="M154.403,60.537L156.609,60.537C156.784,60.537 156.945,60.491 157.092,60.399C157.238,60.307 157.363,60.18 157.468,60.017C157.572,59.854 157.656,59.664 157.718,59.447C157.781,59.229 157.812,58.995 157.812,58.745L157.812,53.919C157.812,53.669 157.783,53.433 157.725,53.211C157.666,52.99 157.585,52.795 157.48,52.628C157.376,52.461 157.248,52.33 157.098,52.234C156.947,52.137 156.784,52.089 156.609,52.089L154.403,52.089L154.403,60.537ZM157.511,51.25C157.796,51.25 158.055,51.321 158.289,51.463C158.522,51.605 158.723,51.797 158.89,52.039C159.057,52.282 159.187,52.566 159.279,52.892C159.371,53.217 159.417,53.56 159.417,53.919L159.417,58.745C159.417,59.112 159.371,59.455 159.279,59.773C159.187,60.09 159.057,60.368 158.89,60.606C158.723,60.844 158.522,61.032 158.289,61.17C158.055,61.308 157.796,61.377 157.511,61.377L152.736,61.377L152.736,51.25L157.511,51.25Z" style="fill:white;fill-rule:nonzero;"/><path d="M162.55,58.306L164.906,58.306L163.766,52.34L163.691,52.34L162.55,58.306ZM164.869,51.25L167.162,61.377L165.483,61.377L165.069,59.171L162.387,59.171L161.973,61.377L160.294,61.377L162.575,51.25L164.869,51.25Z" style="fill:white;fill-rule:nonzero;"/><path d="M174.469,51.25L174.469,52.089L171.098,52.089C170.914,52.089 170.749,52.137 170.603,52.234C170.457,52.33 170.331,52.461 170.227,52.628C170.122,52.795 170.041,52.99 169.982,53.211C169.924,53.433 169.895,53.669 169.895,53.919L169.895,58.745C169.895,58.987 169.924,59.215 169.982,59.428C170.041,59.641 170.122,59.831 170.227,59.998C170.331,60.165 170.457,60.297 170.603,60.393C170.749,60.489 170.914,60.537 171.098,60.537L174.469,60.537L174.469,61.377L170.208,61.377C169.916,61.377 169.652,61.31 169.418,61.176C169.184,61.043 168.986,60.857 168.823,60.619C168.66,60.38 168.533,60.101 168.441,59.779C168.349,59.457 168.303,59.112 168.303,58.745L168.303,53.919C168.303,53.56 168.349,53.217 168.441,52.892C168.533,52.566 168.66,52.282 168.823,52.039C168.986,51.797 169.184,51.605 169.418,51.463C169.652,51.321 169.916,51.25 170.208,51.25L174.469,51.25Z" style="fill:white;fill-rule:nonzero;"/><path d="M182.178,51.25L182.178,52.089L179.922,52.089L179.922,61.377L178.255,61.377L178.255,52.089L175.911,52.089L175.911,51.25L182.178,51.25Z" style="fill:white;fill-rule:nonzero;"/><path d="M189.873,51.25L189.873,52.089L185.211,52.089L185.211,55.875L188.595,55.875L188.595,56.727L185.211,56.727L185.211,60.537L189.873,60.537L189.873,61.377L183.506,61.377L183.506,51.25L189.873,51.25Z" style="fill:white;fill-rule:nonzero;"/><path d="M192.693,60.537L194.899,60.537C195.075,60.537 195.236,60.491 195.382,60.399C195.528,60.307 195.653,60.18 195.758,60.017C195.862,59.854 195.946,59.664 196.009,59.447C196.071,59.229 196.103,58.995 196.103,58.745L196.103,53.919C196.103,53.669 196.073,53.433 196.015,53.211C195.956,52.99 195.875,52.795 195.77,52.628C195.666,52.461 195.538,52.33 195.388,52.234C195.238,52.137 195.075,52.089 194.899,52.089L192.693,52.089L192.693,60.537ZM195.802,51.25C196.086,51.25 196.345,51.321 196.579,51.463C196.813,51.605 197.013,51.797 197.18,52.039C197.348,52.282 197.477,52.566 197.569,52.892C197.661,53.217 197.707,53.56 197.707,53.919L197.707,58.745C197.707,59.112 197.661,59.455 197.569,59.773C197.477,60.09 197.348,60.368 197.18,60.606C197.013,60.844 196.813,61.032 196.579,61.17C196.345,61.308 196.086,61.377 195.802,61.377L191.026,61.377L191.026,51.25L195.802,51.25Z" style="fill:white;fill-rule:nonzero;"/><path d="M204.074,49.395L204.074,64.423L199.95,64.423L199.95,63.57L202.683,63.57L202.683,50.247L199.95,50.247L199.95,49.395L204.074,49.395Z" style="fill:white;fill-rule:nonzero;"/></g></g></svg>